<svg width="24" height="24" viewBox="0 0 24 24" fill="none" xmlns="http://www.w3.org/2000/svg">
<path d="M12.0001 3.1001C13.9001 3.1001 15.6001 3.8001 16.9001 5.1001C18.2001 6.4001 18.9001 8.2001 18.9001 10.0001C18.9001 11.9001 18.2001 13.6001 16.9001 14.9001L12.0001 20.0001L7.0001 15.1001C5.7001 13.8001 5.0001 12.0001 5.0001 10.2001C5.0001 8.3001 5.7001 6.6001 7.0001 5.3001C8.4001 3.9001 10.1001 3.1001 12.0001 3.1001ZM12.0001 1.1001C9.7001 1.1001 7.4001 2.0001 5.6001 3.8001C2.1001 7.3001 2.1001 13.0001 5.6001 16.5001L12.0001 22.9001L18.4001 16.5001C21.9001 13.0001 21.9001 7.3001 18.4001 3.8001C16.6001 2.0001 14.3001 1.1001 12.0001 1.1001Z" fill="white"/>
<path d="M12 8C13.1 8 14 8.9 14 10C14 11.1 13.1 12 12 12C10.9 12 10 11.1 10 10C10 8.9 10.9 8 12 8ZM12 6C9.8 6 8 7.8 8 10C8 12.2 9.8 14 12 14C14.2 14 16 12.2 16 10C16 7.8 14.2 6 12 6Z" fill="white"/>
</svg>
