<svg width="24" height="24" viewBox="0 0 24 24" fill="none" xmlns="http://www.w3.org/2000/svg">
<path fill-rule="evenodd" clip-rule="evenodd" d="M6 22V2H18V22H6ZM16 4H8V18H16V4ZM12 21C12.5522 21 13 20.5522 13 20C13 19.4478 12.5522 19 12 19C11.4478 19 11 19.4478 11 20C11 20.5522 11.4478 21 12 21Z" fill="#00C1E6"/>
<path d="M2 11.9999C2 13.9999 2.6 15.8999 3.6 17.4999L2 18.5999C0.8 16.6999 0 14.3999 0 11.9999C0 9.5999 0.7 7.2999 2 5.3999L3.7 6.5999C2.6 8.0999 2 9.9999 2 11.9999Z" fill="#00C1E6"/>
<path d="M24 11.9999C24 14.4999 23.3 16.6999 22 18.5999L20.3 17.3999C21.3 15.7999 21.9 13.9999 21.9 11.8999C21.9 9.7999 21.3 7.9999 20.3 6.3999L22 5.3999C23.3 7.2999 24 9.4999 24 11.9999Z" fill="#00C1E6"/>
</svg>
